<?xml version="1.0" encoding="utf-8"?>
<!-- Generator: Adobe Illustrator 23.0.2, SVG Export Plug-In . SVG Version: 6.00 Build 0)  -->
<svg version="1.1" id="編集モード" xmlns="http://www.w3.org/2000/svg" xmlns:xlink="http://www.w3.org/1999/xlink" x="0px"
	 y="0px" viewBox="0 0 513.1 184.1" style="enable-background:new 0 0 513.1 184.1;" xml:space="preserve">
<path d="M129.3,184.1c-3.8,0-6.5-0.9-8.9-3.3l2.5-2.5c1.8,1.8,3.8,2.4,6.4,2.4c3.3,0,5.2-1.4,5.2-3.8c0-1.1-0.3-2-1-2.6
	c-0.6-0.6-1.3-0.8-2.7-1.1l-3-0.4c-2-0.3-3.7-1-4.8-2c-1.2-1.2-1.8-2.7-1.8-4.8c0-4.4,3.2-7.4,8.4-7.4c3.3,0,5.6,0.8,7.8,2.9
	l-2.4,2.4c-1.6-1.5-3.3-1.9-5.5-1.9c-3,0-4.6,1.7-4.6,3.9c0,0.9,0.3,1.7,0.9,2.3c0.6,0.6,1.7,1,2.8,1.2l2.8,0.4
	c2.3,0.4,3.6,0.9,4.7,1.9c1.4,1.2,2,3,2,5.1C138.3,181.3,134.5,184.1,129.3,184.1"/>
<rect x="151.3" y="158.8" width="3.8" height="25.1"/>
<polygon points="184.9,183.9 173.3,166.2 173.3,183.9 169.5,183.9 169.5,158.8 173,158.8 184.5,176.4 184.5,158.8 188.3,158.8 
	188.3,183.9 "/>
<path d="M211,184.1c-2.6,0-4.9-1-6.6-2.7c-2.5-2.5-2.4-5.2-2.4-10.1c0-4.8,0-7.6,2.4-10.1c1.7-1.7,4-2.7,6.6-2.7
	c4.6,0,8.1,2.7,8.9,7.7h-3.9c-0.6-2.5-2.3-4.3-5.1-4.3c-1.5,0-2.8,0.6-3.7,1.5c-1.2,1.3-1.5,2.8-1.5,7.8c0,5,0.3,6.5,1.5,7.8
	c0.9,0.9,2.2,1.5,3.7,1.5c2.8,0,4.5-1.8,5.1-4.3h3.8C219.1,181.4,215.6,184.1,211,184.1"/>
<polygon points="233,183.9 233,158.8 249,158.8 249,162.2 236.8,162.2 236.8,169.6 247.2,169.6 247.2,172.9 236.8,172.9 
	236.8,180.5 249,180.5 249,183.9 "/>
<polygon points="282.4,183.9 282.4,162.7 277.5,167 277.5,163 282.4,158.8 286,158.8 286,183.9 "/>
<path d="M313.6,172.3l-5.7,11.6h-3.8l5.4-10.8c-0.7,0.3-1.5,0.4-2.3,0.4c-3.6,0-6.6-2.9-6.6-7.3c0-4.6,3.1-7.6,7.4-7.6
	c4.3,0,7.4,2.9,7.4,7.5C315.5,168.1,314.7,170.1,313.6,172.3 M308.1,161.8c-2.3,0-3.8,1.7-3.8,4.4c0,2.5,1.4,4.3,3.8,4.3
	c2.3,0,3.8-1.6,3.8-4.3C311.9,163.5,310.3,161.8,308.1,161.8"/>
<polygon points="334.5,183.9 330.7,183.9 339.1,162 331.4,162 331.4,166 328,166 328,158.8 342.9,158.8 342.9,162 "/>
<polygon points="365.9,180.1 365.9,183.9 362.4,183.9 362.4,180.1 352.2,180.1 352.2,176.8 361.1,158.8 365,158.8 356.2,176.8 
	362.4,176.8 362.4,170.9 365.9,170.9 365.9,176.8 368.5,176.8 368.5,180.1 "/>
<path d="M86.8,58.6c2.9,1.2,5.8,2.3,8.6,3.6c11.5,5.4,19,14.2,20.8,26.9c1.5,10.3-1.7,19.6-8.1,27.7c-8.7,11.2-20.5,17.2-34.3,19.5
	c-8.5,1.4-17.1,0.5-25.6-0.2c-10.4-0.9-20.8-1.5-31.3,0c-3.4,0.5-7,0.5-10.5,0.2C3,136,1.1,133.4,2.2,131c0.5-1,1.5-2,2.6-2.5
	c2.1-1,4.3-1.7,6.6-2.4c6.3-1.9,9.1-6.4,9.6-12.6c0.3-3.4,0.4-6.8,0.4-10.3c0-22.1,0.1-44.2,0-66.3c0-6.1-0.2-12.3-2.5-18.2
	c-1.3-3.3-3.6-5.1-7-5.7c-2.4-0.4-4.7-0.9-7.1-1.4C1.5,10.9-0.2,8.9,0,6.5C0.3,3.8,2.3,2,5.6,2c4.8-0.1,9.5-0.2,14.3,0.2
	c11.8,0.8,23.5,0,35.2-1.4c12.6-1.4,24.9-1.2,36.4,5c9.1,4.9,15.6,11.9,17.1,22.5c1.4,10.1-1.6,18.3-10.4,24
	C94.7,54.6,90.7,56.4,86.8,58.6 M42.6,66.1c0.1,0,0.2,0,0.4,0c0,13.1-0.1,26.2,0,39.3c0,4.7,1,9.3,3.5,13.4
	c5.9,10.1,19.7,13.4,30.3,6.9c12-7.3,17.6-18.4,16.6-32.3c-0.7-10.2-5.5-18.3-14.6-23.7c-6.9-4.1-14.4-5.7-22.3-5.6
	c-3.5,0-5.5-1.4-5.7-3.6c-0.1-2.3,1.5-3.6,5.1-4.3c5.2-1,10.6-1.7,15.7-3.3C88.2,47.8,89.2,34.1,85,23.4c-3.5-9-14-15.1-25-15
	c-6.1,0.1-11,2.7-14.5,7.6c-2.6,3.6-2.9,7.8-2.9,12.1C42.6,40.8,42.6,53.4,42.6,66.1"/>
<path d="M477.3,116.7c6.2-14.8,12.6-29,16.4-44.2c0.6-2.2,0.7-4.6,0.7-6.9c0.1-2.6-1.4-4.2-3.7-5.1c-1.4-0.5-2.8-0.9-4.2-1.5
	c-1.9-0.8-2.8-2.2-2.4-4.3c0.5-2,1.6-3.6,3.9-3.6c1.6,0,3.3,0.1,4.9,0.1c5.6,0,11.2,0,16.8,0h3.3c0,2.5,0.1,4.8,0,7.1
	c0,0.5-0.5,1.3-0.9,1.4c-6.3,2.8-8.5,8.7-10.3,14.6c-6.3,20.5-13.9,40.5-22,60.4c-4,9.9-8.5,19.6-14.9,28.2
	c-6.2,8.3-14.5,13.1-25.2,12.8c-5.2-0.1-9.2-2.7-12.5-6.5c-1.5-1.7-1.8-3.9-1.3-5.9c1.4-5,4-9.3,8.5-12.1c3.6-2.3,6.2-1.2,7.4,2.9
	c0.3,1,0.6,2.1,0.9,3.1c1.2,4.5,4.6,6.2,9,4.2c4.3-1.9,7.5-5.2,9.8-9.1c2-3.4,3.5-7.1,5.1-10.7c0.3-0.6,0.2-1.5-0.1-2.2
	c-10.3-23.4-20.7-46.7-31-70.1c-1.9-4.3-4.4-7.8-8.8-9.8c-1.8-0.8-2.9-2.1-2.6-4.2c0.3-2.2,1.7-3.6,3.8-3.9c2-0.3,4-0.1,6-0.1
	c7.9,0,15.7,0,23.6,0.1c0.9,0,1.9,0.1,2.8,0.3c2.2,0.5,3.7,1.8,3.9,4.1c0.2,2.1-1,3.5-2.9,4.3c-0.9,0.4-1.9,0.7-2.8,1.1
	c-2.8,1.2-4.1,3.3-3.1,6.1c1.9,5.6,3.8,11.2,6.2,16.6c4.7,10.6,9.8,21,14.7,31.5C476.5,115.6,476.8,115.9,477.3,116.7"/>
<path d="M132.3,96.3c0.1-12.1,2.6-22.2,9-31c8.8-12.2,21.1-17,35.6-15.8c19.1,1.6,32.2,11.8,37.7,30.2c5.3,17.7,2.2,34.1-11.4,47.3
	c-9.5,9.3-21.3,12.4-34.4,10.9c-9-1.1-17-4.4-23.6-10.7c-7-6.5-10.8-14.7-12.3-24.1C132.5,100.4,132.4,97.7,132.3,96.3 M151,90
	c0.3,11,2.9,21.2,9.6,30.1c5.3,7.1,14.1,10.5,21.8,8.3c7.4-2.1,10.9-7.9,13.2-14.6c2.5-7.2,2.9-14.6,1.9-22.1
	c-1.3-9.1-3.8-17.8-10-25c-9.5-11.1-26.6-8.7-32.6,4.7C152.2,77.3,151,83.5,151,90"/>
<path d="M369.1,101.6c4.2,12.6,14.1,20.3,27.1,21.3c6.7,0.5,12.6-1.1,17.9-5.1c1.2-0.9,2.4-1.9,3.7-2.4c1.1-0.4,2.8-0.5,3.6,0
	c0.8,0.6,1.4,2.3,1.2,3.4c-0.4,1.8-1.2,3.7-2.3,5.2c-6.3,8.8-15.1,13.3-25.8,13.7c-13.2,0.5-24.7-3.6-33.4-14
	c-6.7-8.1-9.6-17.7-9.6-28.1c0-14.9,4.8-27.8,16.6-37.2c10.6-8.5,22.9-10.9,35.8-6c8.5,3.2,13.9,10,16.8,18.7
	c1.2,3.8-0.5,7.2-4.8,9.3c-7.1,3.4-14.2,6.6-21.4,9.8c-7.8,3.6-15.7,7.1-23.5,10.7C370.3,101,369.7,101.3,369.1,101.6 M366.7,92.7
	c4-1.7,7.9-3.3,11.7-5c6.3-2.8,12.7-5.4,18.9-8.4c7.1-3.5,5.5-9.9,1.7-13.6c-7.1-6.9-19.8-7.2-26.4,1.1
	C366.5,74.3,366.2,83.3,366.7,92.7"/>
<path d="M329.1,62.1c0,17.2-0.1,34.5,0.1,51.7c0,3.4,0.9,6.9,1.7,10.3c0.5,2.1,1.9,3.4,4.3,3.6c1.8,0.1,3.7,0.6,5.4,1.3
	c1.7,0.6,3.2,1.8,3,3.9c-0.1,2.2-1.5,3.2-3.4,3.5c-2,0.2-4,0.5-6,0.3c-9-1-17.9-0.7-26.8,0c-2.1,0.2-4.3,0.1-6.2-0.5
	c-1.2-0.4-2.6-1.8-3-3c-0.6-1.7,0.8-2.9,2.3-3.5c1.5-0.6,3.1-1.1,4.6-1.6c3.7-1.2,5.6-3.9,5.8-7.6c0.2-2.6,0.3-5.3,0.3-7.9
	c0-29.7,0-59.5,0-89.2c0-1.9-0.1-3.9-0.3-5.8c-0.3-3.1-1.8-5.3-4.9-6.1c-2-0.5-4.1-1-6.1-1.4c-1.8-0.4-3.3-1.3-3.3-3.4
	c0-1.9,1-3.5,2.9-4.1c1.1-0.3,2.3-0.5,3.4-0.5c6.6-0.1,13.3,0,19.9-0.1c4.7,0,6.1,1.2,6.4,5.9c0.1,1,0,2,0,3V62.1z"/>
<path d="M261.4,51.1c7.6-0.3,14.7,2.2,20.5,8.2c1.8,1.9,2.4,3.8,1.1,6.1c-1.2,2.2-2.5,4.3-3.8,6.4c-0.9,1.4-2,1.3-3.1,0.3
	c-1-1-2.1-1.9-3.1-2.9c-4.3-4.4-9.6-6.8-15.4-8.3c-4.8-1.2-8.7,0.9-12.1,4c-1.7,1.6-1.8,3.8-0.6,5.6c1.4,2.1,3,4.2,5,5.7
	c8,6.4,16.3,12.3,24.1,18.8c3.6,3,6.8,6.8,9,10.9c5.6,10.1,1.9,20.7-8.5,26.2c-15.2,7.9-30,6-44.7-1.4c-3.3-1.7-4.3-4.4-3.3-8.1
	c0.9-3.6,2.7-6.8,5.5-9.3c2.2-2,3.9-1.8,5.8,0.5c1.1,1.3,2,2.8,3,4.1c5.4,7.3,15,10.9,23.1,8.7c7-1.9,9.2-8.2,4.3-13.5
	c-3.2-3.4-7.2-6.2-10.9-9.1c-6.7-5.3-13.7-10.3-20.1-15.9c-3.7-3.1-6.2-7.3-6.9-12.4c-0.9-6.5,1.5-11.8,6.2-16.1
	C242.5,54,251.2,51.1,261.4,51.1"/>
</svg>
