<svg 
 xmlns="http://www.w3.org/2000/svg"
 xmlns:xlink="http://www.w3.org/1999/xlink"
 width="266px" height="117px">
<path fill-rule="evenodd"  fill="rgb(0, 0, 0)"
 d="M264.586,13.849 C264.468,13.908 264.320,13.938 264.172,13.997 C262.989,14.441 261.835,14.944 260.681,15.447 C260.149,15.654 259.912,15.832 259.912,16.423 L259.912,16.808 C259.912,17.725 259.942,18.613 259.942,19.530 C259.942,20.595 259.794,20.713 258.669,20.713 C257.397,20.713 256.865,20.654 256.865,19.885 C256.865,19.234 256.924,18.583 256.924,17.962 C256.924,17.695 256.835,17.459 256.539,17.459 C256.391,17.459 253.344,18.760 253.344,20.595 C253.344,22.577 256.214,22.754 257.634,22.754 C259.616,22.754 261.214,22.488 263.137,22.015 C263.314,21.985 263.521,21.956 263.729,21.956 C264.113,21.956 264.320,22.281 264.320,23.967 C264.320,24.855 264.291,25.092 263.640,25.240 C262.516,25.506 259.232,25.624 257.959,25.624 C256.273,25.624 254.853,25.536 253.285,24.855 C251.480,24.056 250.326,22.636 250.326,20.624 C250.326,17.962 252.486,16.512 254.527,15.299 C255.119,14.944 255.740,14.619 256.362,14.323 C256.658,14.175 256.894,13.997 256.894,13.642 C256.894,13.435 256.806,13.021 256.746,12.814 C256.598,12.163 256.125,11.808 255.445,11.808 C253.788,11.808 251.066,13.228 249.912,14.411 C249.054,15.269 248.048,16.808 247.427,17.873 C247.338,18.021 247.220,18.169 247.013,18.169 C246.480,18.169 244.498,16.985 244.498,16.453 C244.498,16.216 244.735,15.979 244.883,15.802 C245.563,15.062 249.853,9.116 249.853,8.554 C249.853,8.287 249.616,8.199 249.202,8.199 C248.729,8.199 248.048,8.287 247.131,8.287 C246.480,8.287 246.362,8.139 246.362,6.631 C246.362,5.447 246.480,5.270 247.220,5.270 C247.723,5.270 248.492,5.329 249.350,5.329 L250.208,5.329 C250.977,5.329 251.776,5.299 252.042,4.944 C252.545,4.293 253.433,1.986 253.640,1.128 C253.699,0.802 253.758,0.506 254.054,0.506 C254.320,0.506 257.368,1.867 257.368,2.311 C257.368,2.489 257.161,2.607 257.013,2.666 C256.539,2.844 256.421,2.992 256.036,3.672 C255.948,3.820 255.740,4.175 255.740,4.352 C255.740,4.560 255.888,4.648 256.066,4.648 C256.658,4.648 258.877,4.027 259.498,3.820 C259.705,3.731 260.030,3.642 260.237,3.642 C260.740,3.642 260.888,4.116 260.977,4.530 C261.066,4.915 261.214,5.713 261.214,6.128 C261.214,6.631 260.267,6.749 259.646,6.867 C257.782,7.252 255.918,7.577 254.054,7.784 C253.581,7.843 253.462,7.903 253.167,8.258 C252.989,8.494 252.161,9.767 252.161,9.974 C252.161,10.092 252.279,10.181 252.397,10.181 C252.575,10.181 252.782,10.092 252.930,10.003 C253.936,9.559 255.060,9.234 256.155,9.234 C258.048,9.234 259.143,10.033 259.527,11.897 C259.587,12.163 259.675,12.400 259.971,12.400 C260.326,12.400 262.959,10.980 263.433,10.713 C263.640,10.625 263.965,10.417 264.202,10.417 C264.764,10.417 265.474,12.695 265.474,13.198 C265.474,13.553 265.149,13.672 264.586,13.849 ZM251.028,94.976 C251.028,94.058 250.909,92.195 250.732,91.307 C250.702,91.218 250.702,91.159 250.702,91.070 C250.702,90.834 250.850,90.715 251.087,90.715 C251.767,90.715 252.684,90.893 253.395,90.952 C254.105,91.011 254.992,91.100 254.992,91.366 C254.992,91.514 254.903,91.603 254.815,91.692 C254.608,91.840 254.371,92.076 254.341,92.934 C254.312,93.555 254.312,94.206 254.312,94.828 C254.312,95.390 254.637,95.686 255.170,95.686 C255.406,95.686 256.560,95.597 256.886,95.597 C258.335,95.538 261.501,95.360 262.773,95.360 C263.246,95.360 263.454,95.538 263.454,96.869 C263.454,98.674 263.098,98.644 262.803,98.644 C262.388,98.644 260.170,98.496 258.513,98.496 C257.980,98.496 255.229,98.526 254.903,98.615 C254.489,98.762 254.341,99.177 254.341,99.591 L254.341,100.626 C254.341,101.455 254.371,101.691 254.637,102.165 C255.288,103.378 255.554,104.946 255.554,106.307 C255.554,111.070 252.389,116.366 251.087,116.366 C250.732,116.366 248.335,115.626 248.335,115.094 C248.335,114.857 248.838,114.443 249.016,114.265 C250.140,113.200 250.406,112.697 251.146,111.395 C251.205,111.247 251.294,111.129 251.294,110.952 C251.294,110.863 251.205,110.744 251.087,110.744 C250.998,110.744 250.939,110.744 250.850,110.774 C250.643,110.833 250.377,110.922 250.170,110.922 C247.596,110.922 246.649,108.141 246.649,105.981 C246.649,103.259 247.832,100.656 250.821,100.390 C250.969,100.360 251.176,100.271 251.176,100.035 C251.176,98.940 250.969,98.792 250.643,98.792 C250.406,98.792 249.045,98.940 248.690,98.970 C247.152,99.117 243.336,99.532 241.915,99.828 C241.768,99.857 241.620,99.887 241.472,99.887 C240.998,99.887 240.969,99.473 240.880,99.088 C240.791,98.585 240.643,97.461 240.643,96.958 C240.643,96.366 240.910,96.425 242.359,96.366 C243.158,96.336 250.111,95.952 250.377,95.893 C250.821,95.774 251.028,95.419 251.028,94.976 ZM250.939,103.259 C249.785,103.259 249.489,104.887 249.489,105.774 C249.489,106.662 249.696,108.289 250.880,108.289 C252.063,108.289 252.418,106.780 252.418,105.863 C252.418,104.946 252.152,103.259 250.939,103.259 ZM230.885,19.234 C230.352,19.234 230.234,18.820 230.145,18.524 C229.198,15.417 228.459,13.406 226.950,10.477 C226.861,10.329 226.743,10.062 226.743,9.885 C226.743,9.293 228.459,8.672 228.902,8.672 C229.257,8.672 229.405,8.849 229.583,9.175 C230.234,10.299 231.033,12.074 231.535,13.287 C231.831,14.056 233.074,17.311 233.074,17.962 C233.074,18.642 231.447,19.234 230.885,19.234 ZM227.127,18.908 C227.394,18.908 229.524,19.263 229.524,20.358 C229.524,21.246 228.547,23.967 228.104,24.796 C227.305,26.216 226.417,26.246 224.908,26.246 L218.193,26.246 C216.269,26.246 214.554,25.831 214.554,23.553 C214.554,22.784 214.583,22.015 214.583,21.246 L214.583,9.530 C214.583,8.731 214.583,7.873 214.494,7.252 C214.465,7.163 214.465,7.015 214.465,6.926 C214.465,6.571 214.701,6.512 214.997,6.512 C215.382,6.512 217.453,6.631 217.867,6.660 C218.074,6.690 218.370,6.749 218.370,7.015 C218.370,7.222 218.222,7.281 218.015,7.429 C217.690,7.666 217.660,8.199 217.660,8.849 L217.660,21.749 C217.660,23.228 217.956,23.317 219.346,23.317 L223.755,23.317 C225.441,23.317 225.885,23.257 226.417,20.092 C226.536,19.441 226.595,18.908 227.127,18.908 ZM223.192,7.548 C222.926,7.548 222.482,7.104 222.275,6.926 C220.323,5.151 219.110,4.175 216.891,2.696 C216.713,2.577 216.358,2.370 216.358,2.104 C216.358,1.719 217.542,0.329 218.222,0.329 C218.814,0.329 221.388,2.311 221.979,2.784 C222.837,3.465 224.021,4.441 224.760,5.210 C224.908,5.388 225.027,5.506 225.027,5.743 C225.027,6.394 223.843,7.548 223.192,7.548 ZM217.302,95.183 C217.302,94.709 217.125,92.727 217.036,92.224 C217.006,92.076 216.977,91.899 216.977,91.751 C216.977,91.455 217.154,91.396 217.420,91.396 C217.864,91.396 219.255,91.603 219.787,91.662 C220.556,91.751 220.971,91.810 220.971,92.135 C220.971,92.697 220.468,92.195 220.409,94.591 C220.409,95.005 220.497,95.449 221.030,95.449 C221.148,95.449 222.302,95.271 222.509,95.242 C223.456,95.123 224.817,94.798 225.734,94.561 C226.000,94.502 226.592,94.325 226.858,94.325 C227.509,94.325 227.598,96.248 227.598,96.751 C227.598,97.342 227.331,97.402 226.769,97.520 C225.231,97.845 223.397,98.112 221.829,98.289 C221.207,98.378 220.497,98.348 220.497,99.177 C220.497,99.532 220.556,100.360 220.645,100.745 C220.704,100.922 220.764,101.218 221.119,101.218 C221.829,101.218 224.166,100.715 224.905,100.508 C225.083,100.449 225.290,100.390 225.468,100.390 C225.882,100.390 225.971,101.041 225.971,102.165 C225.971,103.141 225.941,103.437 225.408,103.555 C224.610,103.762 223.190,103.969 222.361,104.058 C221.237,104.177 220.645,104.177 220.645,105.005 C220.645,108.082 220.764,107.845 222.036,108.259 C223.012,108.585 226.917,110.242 226.917,111.307 C226.917,111.957 225.941,113.466 225.231,113.466 C224.905,113.466 224.550,113.200 224.314,112.993 C223.781,112.579 221.829,111.188 221.237,111.188 C220.764,111.188 220.704,111.632 220.645,111.839 C220.024,114.383 217.687,115.123 215.290,115.123 C212.923,115.123 210.350,114.028 210.350,111.277 C210.350,108.289 213.574,107.342 216.030,107.342 C216.385,107.342 217.065,107.401 217.243,107.401 C217.746,107.401 217.746,106.869 217.746,106.573 C217.746,105.626 217.805,104.532 217.065,104.532 C216.444,104.532 214.787,104.650 213.515,104.650 C212.302,104.650 211.740,104.680 211.503,104.147 C211.267,103.644 211.119,102.638 211.119,102.076 C211.119,101.721 211.208,101.455 211.622,101.455 C211.977,101.455 213.633,101.603 214.758,101.603 L216.089,101.603 C217.184,101.603 217.598,101.514 217.598,100.863 C217.598,100.005 217.568,98.792 216.799,98.792 C215.764,98.792 213.397,98.940 211.799,98.940 L210.912,98.940 C210.113,98.940 209.373,98.910 209.196,98.674 C208.900,98.230 208.870,97.047 208.870,96.514 C208.870,96.100 208.900,95.686 209.403,95.686 C210.024,95.686 212.509,95.922 213.959,95.922 C216.562,95.922 217.302,95.981 217.302,95.183 ZM216.415,109.946 C215.497,109.946 213.190,110.034 213.190,111.307 C213.190,112.313 214.521,112.490 215.290,112.490 C216.651,112.490 217.805,112.105 217.805,110.508 C217.805,109.946 217.095,109.946 216.415,109.946 ZM212.157,11.808 C211.565,14.382 210.737,17.281 209.672,19.678 C209.524,20.003 209.317,20.447 208.903,20.447 C208.400,20.447 206.654,19.766 206.654,19.145 C206.654,18.938 206.921,18.346 207.039,18.139 C208.222,15.506 209.051,13.080 209.406,10.181 C209.435,9.855 209.435,9.382 209.879,9.382 C210.086,9.382 211.151,9.678 211.447,9.737 C212.275,9.944 213.133,10.210 213.133,10.506 C213.133,10.743 212.897,10.861 212.719,10.950 C212.246,11.157 212.275,11.335 212.157,11.808 ZM194.212,9.293 C192.082,10.003 188.917,11.601 186.905,12.695 C185.337,13.553 182.822,15.003 181.579,16.187 C180.810,16.926 180.130,17.725 180.130,18.849 C180.130,19.914 181.165,20.654 182.082,20.979 C183.325,21.423 184.715,21.512 186.017,21.512 C188.502,21.512 191.343,21.186 193.739,20.743 C193.828,20.713 193.916,20.713 194.005,20.713 C194.419,20.713 194.449,21.926 194.449,22.547 L194.449,22.902 C194.449,23.672 194.419,23.997 193.828,24.145 C192.703,24.441 187.112,24.618 185.692,24.618 C183.502,24.618 181.579,24.500 179.627,23.346 C177.970,22.399 176.905,20.743 176.905,18.790 C176.905,15.565 179.568,13.465 182.023,11.867 C182.319,11.660 182.526,11.453 182.526,11.098 C182.526,10.861 182.497,10.743 182.408,10.565 C182.053,9.500 181.224,6.364 180.929,5.151 C180.751,4.471 180.603,3.820 180.366,3.199 C180.337,3.080 180.278,2.962 180.278,2.844 C180.278,2.400 181.254,2.400 182.201,2.252 C182.644,2.193 183.147,2.104 183.621,2.104 C184.449,2.104 184.390,2.548 184.449,3.228 C184.627,5.003 184.952,6.778 185.366,8.524 C185.455,8.909 185.544,9.412 186.047,9.412 C186.579,9.412 191.313,6.631 192.082,6.128 C192.319,6.009 192.585,5.832 192.851,5.832 C193.236,5.832 193.739,6.719 193.916,7.015 C194.153,7.400 194.774,8.406 194.774,8.820 C194.774,9.116 194.449,9.204 194.212,9.293 ZM163.785,107.727 L159.555,107.727 C159.466,107.727 159.436,107.786 159.436,107.875 C159.407,108.082 159.318,108.141 159.081,108.289 C159.052,108.319 158.993,108.378 158.933,108.407 C158.904,108.496 158.874,108.555 158.874,108.644 C158.874,108.940 159.200,108.999 159.436,109.029 L160.945,109.029 C162.129,109.029 163.282,108.969 164.466,108.969 C165.087,108.969 165.117,109.265 165.117,110.182 C165.117,111.129 165.087,111.425 164.466,111.425 C163.282,111.425 162.129,111.366 160.945,111.366 L159.614,111.366 C159.052,111.366 158.786,111.573 158.786,112.135 C158.756,112.727 158.815,113.289 158.815,113.881 C158.815,114.620 158.667,115.389 158.016,115.863 C157.040,116.573 155.206,116.662 153.993,116.662 C153.519,116.662 152.957,116.662 152.691,116.188 C152.454,115.774 152.188,114.886 152.188,114.413 C152.188,114.117 152.336,113.940 152.661,113.940 C152.809,113.940 153.046,113.940 153.223,113.969 C153.490,113.999 153.874,114.028 154.200,114.028 C155.857,114.028 155.916,113.703 155.886,112.165 C155.886,111.602 155.649,111.366 155.058,111.366 L148.312,111.366 C148.046,111.366 147.987,111.514 147.987,111.602 C147.987,111.721 148.016,111.750 148.076,111.869 C148.519,112.224 150.265,113.792 150.265,114.265 C150.265,114.679 149.052,115.833 148.371,115.833 C148.076,115.833 147.839,115.537 147.661,115.330 C147.070,114.620 146.301,113.851 145.590,113.230 C145.443,113.082 145.235,112.934 145.235,112.697 C145.235,112.372 145.768,111.928 146.005,111.750 C146.064,111.691 146.093,111.632 146.093,111.543 C146.093,111.395 145.975,111.366 145.857,111.366 L143.815,111.366 C142.632,111.366 141.478,111.425 140.295,111.425 C139.673,111.425 139.644,111.129 139.644,110.212 C139.644,109.265 139.673,108.969 140.295,108.969 C141.478,108.969 142.632,109.029 143.815,109.029 L155.058,109.029 C155.472,109.029 155.827,108.851 155.827,108.378 L155.827,108.230 C155.768,107.875 155.590,107.727 155.235,107.727 L152.632,107.727 C150.087,107.727 146.981,107.786 144.940,106.070 C144.733,105.893 144.555,105.804 144.289,105.804 C144.082,105.804 143.934,105.863 143.786,105.981 C143.046,106.455 142.307,106.928 141.537,107.401 C141.330,107.520 141.271,107.638 141.182,107.845 C141.123,108.052 141.034,108.259 140.798,108.259 C140.531,108.259 140.443,108.052 140.147,107.579 C139.940,107.253 139.111,105.981 139.111,105.685 C139.111,105.449 139.348,105.360 139.733,105.212 C140.472,104.916 141.212,104.561 141.922,104.177 C142.484,103.881 142.632,103.644 142.632,102.993 L142.632,101.366 C142.632,100.804 142.395,100.567 141.804,100.538 C141.330,100.538 140.709,100.626 140.295,100.626 C139.673,100.626 139.703,100.242 139.703,99.384 C139.703,98.348 139.673,98.052 140.324,98.052 C140.827,98.052 141.301,98.112 141.774,98.112 L142.750,98.112 C143.253,98.112 143.756,98.052 144.259,98.052 C145.058,98.052 145.561,98.289 145.561,99.177 C145.561,99.739 145.502,100.330 145.502,101.129 L145.502,102.313 C145.502,103.644 145.946,104.532 147.247,105.005 C148.342,105.390 150.827,105.478 152.957,105.478 C154.022,105.478 154.999,105.449 155.649,105.449 C157.868,105.449 160.117,105.449 162.336,105.360 C162.602,105.360 164.821,105.212 165.058,105.212 C165.383,105.212 165.472,105.390 165.472,105.715 C165.472,106.159 165.294,107.313 164.880,107.549 C164.614,107.697 164.170,107.727 163.785,107.727 ZM164.853,10.417 C164.794,10.417 164.706,10.417 164.646,10.388 L164.498,10.388 C164.351,10.388 164.232,10.477 164.084,10.536 C161.096,12.311 158.818,13.376 155.505,14.500 C155.209,14.589 154.499,14.855 154.203,14.855 C153.611,14.855 152.871,13.465 152.871,13.139 C152.871,12.814 153.315,12.695 153.818,12.548 C156.570,11.690 160.534,10.122 162.871,8.465 C162.960,8.376 163.078,8.287 163.197,8.287 C163.404,8.287 164.025,8.849 164.439,9.264 C164.617,9.441 164.765,9.589 164.853,9.648 C164.972,9.767 165.179,9.974 165.179,10.181 C165.179,10.358 164.972,10.417 164.853,10.417 ZM163.848,6.187 C163.788,6.187 163.581,6.128 163.522,6.128 C163.433,6.098 163.404,6.098 163.345,6.098 C163.197,6.098 163.019,6.246 162.901,6.305 C160.416,7.755 157.842,9.027 155.120,9.974 C154.854,10.062 154.203,10.299 153.907,10.299 C153.286,10.299 152.635,8.879 152.635,8.583 C152.635,8.258 153.079,8.169 153.611,7.991 C155.919,7.281 159.913,5.536 161.895,4.205 C161.984,4.145 162.102,4.057 162.220,4.057 C162.457,4.057 162.871,4.500 163.049,4.648 C163.374,4.974 164.173,5.625 164.173,5.920 C164.173,6.098 163.996,6.187 163.848,6.187 ZM161.925,2.607 C161.806,2.607 161.658,2.577 161.570,2.548 C161.510,2.518 161.451,2.518 161.422,2.518 C161.274,2.518 161.155,2.607 161.037,2.666 C159.706,3.406 154.292,6.068 153.049,6.068 C152.457,6.068 151.777,4.648 151.777,4.293 C151.777,3.968 152.339,3.849 152.724,3.731 C154.942,3.139 158.078,1.808 160.002,0.595 C160.090,0.536 160.238,0.447 160.327,0.447 C160.623,0.447 161.599,1.512 161.865,1.779 C161.984,1.897 162.250,2.163 162.250,2.370 C162.250,2.518 162.072,2.607 161.925,2.607 ZM143.966,8.672 L148.552,8.672 C149.499,8.672 150.445,8.642 151.392,8.642 C151.984,8.642 151.954,8.968 151.954,9.559 C151.954,10.210 151.984,10.506 151.392,10.506 C151.008,10.506 150.475,10.477 150.120,10.477 C149.943,10.506 149.795,10.565 149.795,10.743 C149.795,10.861 149.824,10.920 149.913,11.009 C150.268,11.335 151.836,12.932 151.836,13.346 C151.836,13.613 151.156,13.968 150.948,14.056 C150.889,14.086 150.860,14.116 150.860,14.204 C150.860,14.264 150.919,14.293 150.948,14.323 C151.333,14.382 151.866,14.411 151.866,14.707 C151.866,14.944 151.658,15.033 151.481,15.121 C151.392,15.151 151.333,15.181 151.244,15.240 C151.215,15.269 151.126,15.329 151.126,15.417 C151.126,15.595 151.303,15.654 151.481,15.684 L160.859,15.684 C161.895,15.684 162.930,15.624 163.966,15.624 C164.528,15.624 164.528,15.832 164.528,16.689 C164.528,17.518 164.528,17.725 163.966,17.725 C162.930,17.725 161.895,17.666 160.859,17.666 L150.298,17.666 C149.943,17.666 149.824,17.725 149.587,18.021 C149.558,18.080 149.528,18.139 149.499,18.169 C149.440,18.287 149.410,18.346 149.410,18.465 C149.410,18.731 149.617,18.790 149.854,18.820 L155.150,18.820 C155.919,18.820 156.688,18.790 157.457,18.790 C157.931,18.790 158.197,18.879 158.493,19.263 C158.641,19.500 158.936,20.033 158.936,20.328 C158.936,21.068 156.865,22.547 156.244,22.962 C156.155,23.021 156.067,23.110 156.067,23.257 C156.067,23.405 156.215,23.494 156.363,23.553 C158.729,24.027 161.155,24.323 163.581,24.323 C163.907,24.323 164.084,24.441 164.084,25.062 C164.084,26.009 163.729,26.837 162.664,26.837 C159.617,26.837 156.155,26.098 153.286,25.151 C153.049,25.062 152.901,25.033 152.635,25.033 C152.398,25.033 152.161,25.092 151.925,25.180 C150.327,25.802 148.700,26.305 147.014,26.630 C146.481,26.719 145.534,26.926 145.061,26.926 C144.647,26.926 144.469,26.719 144.262,26.216 C144.173,25.920 143.937,25.299 143.937,25.003 C143.937,24.589 144.380,24.559 145.179,24.470 C146.304,24.323 147.694,24.027 148.789,23.731 C148.848,23.701 149.055,23.612 149.055,23.405 C149.055,23.257 148.996,23.169 148.877,23.080 C148.315,22.725 147.753,22.340 147.221,21.926 C147.043,21.778 146.895,21.689 146.659,21.689 C146.422,21.689 146.244,21.808 146.067,21.956 C144.410,23.376 142.428,24.618 140.475,25.624 C140.298,25.713 139.884,25.920 139.676,25.920 C139.144,25.920 138.315,24.470 138.315,24.115 C138.315,23.790 138.848,23.583 139.085,23.465 C141.629,22.252 144.292,20.417 146.126,18.287 C146.185,18.198 146.244,18.139 146.244,18.021 C146.244,17.755 146.008,17.695 145.801,17.666 L142.073,17.666 C141.037,17.666 140.002,17.725 138.966,17.725 C138.375,17.725 138.375,17.518 138.375,16.689 C138.375,15.832 138.375,15.624 138.966,15.624 C140.002,15.624 141.037,15.684 142.073,15.684 L147.102,15.684 C147.724,15.684 147.960,15.565 148.256,15.003 C148.345,14.796 148.404,14.619 148.434,14.500 C148.552,14.175 148.582,14.056 148.818,14.027 C148.966,13.968 149.144,13.879 149.144,13.731 C149.144,13.672 149.144,13.642 149.114,13.583 C148.877,13.376 148.641,13.287 148.345,13.287 L148.019,13.287 C145.386,13.642 142.724,13.968 140.061,14.264 C139.884,14.293 139.824,14.441 139.736,14.589 C139.647,14.737 139.558,14.855 139.410,14.855 C139.144,14.855 139.026,14.530 138.848,13.968 C138.759,13.731 138.434,12.784 138.434,12.548 C138.434,12.311 138.611,12.311 139.203,12.281 C139.321,12.281 139.499,12.252 139.676,12.252 L139.765,12.252 C140.239,12.193 140.446,12.045 140.653,11.630 C140.741,11.482 140.801,11.335 140.860,11.187 C140.889,11.127 140.919,11.039 140.919,10.950 C140.919,10.625 140.682,10.506 140.386,10.477 C139.943,10.477 139.499,10.506 139.055,10.506 C138.493,10.506 138.493,10.240 138.493,9.559 C138.493,8.938 138.463,8.642 139.055,8.642 L140.120,8.642 C140.712,8.642 140.919,8.406 140.919,7.843 L140.919,3.849 C140.919,3.317 140.889,2.784 140.889,2.222 C140.889,1.335 141.452,1.216 142.191,1.216 C142.842,1.216 143.493,1.246 144.144,1.246 L148.552,1.246 C149.351,1.246 150.150,1.216 150.978,1.216 C151.540,1.216 151.570,1.394 151.570,2.134 C151.570,2.844 151.540,3.021 150.978,3.021 C150.150,3.021 149.351,2.992 148.552,2.992 L143.966,2.992 C143.730,2.992 143.611,3.110 143.611,3.347 L143.611,3.554 C143.611,3.820 143.730,3.938 143.966,3.938 L147.517,3.938 C148.315,3.938 149.114,3.879 149.913,3.879 C150.386,3.879 150.386,4.086 150.386,4.678 C150.386,5.270 150.386,5.447 149.913,5.447 C149.114,5.447 148.315,5.418 147.517,5.418 L143.966,5.418 C143.730,5.418 143.611,5.536 143.611,5.773 L143.611,5.950 C143.611,6.187 143.730,6.305 143.966,6.305 L147.517,6.305 C148.315,6.305 149.085,6.275 149.883,6.275 C150.357,6.275 150.386,6.423 150.386,7.045 C150.386,7.636 150.357,7.814 149.913,7.814 C149.114,7.814 148.315,7.784 147.517,7.784 L143.966,7.784 C143.730,7.784 143.611,7.903 143.611,8.139 L143.611,8.317 C143.611,8.554 143.730,8.672 143.966,8.672 ZM149.765,21.068 C150.416,21.453 150.948,21.749 151.629,22.074 C151.866,22.163 152.043,22.222 152.280,22.222 C152.546,22.222 152.753,22.133 152.990,22.044 C153.286,21.897 155.031,21.068 155.031,20.772 C155.031,20.654 154.647,20.624 154.203,20.624 L149.913,20.624 C149.795,20.654 149.647,20.684 149.647,20.861 C149.647,20.950 149.676,21.009 149.765,21.068 ZM143.493,11.039 L143.404,11.275 C143.375,11.364 143.345,11.423 143.345,11.542 C143.345,11.838 143.552,11.926 143.818,11.926 C144.795,11.867 145.771,11.719 146.747,11.630 C146.836,11.601 146.925,11.542 146.925,11.423 C146.925,11.364 146.925,11.335 146.866,11.275 C146.599,11.039 146.422,10.920 146.481,10.684 C146.481,10.654 146.511,10.625 146.511,10.595 C146.511,10.506 146.451,10.477 146.363,10.447 L144.469,10.447 C143.937,10.447 143.759,10.565 143.493,11.039 ZM143.135,96.307 C142.869,96.307 142.662,96.070 142.514,95.893 C141.744,95.064 140.946,94.236 140.088,93.496 C139.881,93.319 139.673,93.171 139.673,92.905 C139.673,92.402 140.650,91.218 141.241,91.218 C141.804,91.218 144.792,93.970 144.792,94.621 C144.792,95.153 143.667,96.307 143.135,96.307 ZM155.555,59.590 C155.348,59.590 155.141,59.531 154.934,59.442 C153.455,58.880 151.827,58.702 150.230,58.702 C149.845,58.702 149.490,58.732 149.105,58.732 C148.514,58.732 148.366,58.584 148.366,58.081 C148.366,55.537 148.898,55.714 150.289,55.714 C151.857,55.714 154.756,55.980 156.236,56.543 C156.502,56.631 156.650,56.809 156.650,57.134 C156.650,57.578 156.295,58.791 156.088,59.205 C155.969,59.472 155.851,59.590 155.555,59.590 ZM144.313,67.045 C144.313,66.602 145.674,64.856 146.147,64.856 C146.354,64.856 146.561,65.122 146.679,65.270 C147.981,66.720 150.230,66.986 152.034,66.986 C153.573,66.986 154.786,66.838 156.236,66.394 C156.324,66.365 156.443,66.335 156.531,66.335 C157.034,66.335 157.034,67.016 157.034,68.199 C157.034,68.791 157.064,69.471 156.709,69.678 C156.176,69.915 152.833,70.063 152.094,70.063 C150.141,70.063 147.419,69.826 145.762,68.732 C145.289,68.406 144.313,67.667 144.313,67.045 ZM152.632,94.413 L149.525,94.413 C148.608,94.413 147.691,94.443 146.774,94.443 C146.182,94.443 146.212,94.058 146.212,93.408 C146.212,92.668 146.212,92.313 146.803,92.313 C147.721,92.313 148.638,92.372 149.525,92.372 L150.058,92.372 C150.235,92.342 150.442,92.283 150.442,92.047 C150.442,91.958 150.383,91.899 150.354,91.810 C149.999,91.396 149.732,91.189 149.732,90.952 C149.732,90.419 151.419,89.946 151.863,89.946 C152.395,89.946 153.579,91.544 153.579,91.810 C153.579,92.017 153.431,92.106 153.283,92.224 C153.283,92.224 153.253,92.254 153.253,92.283 C153.253,92.313 153.253,92.342 153.342,92.372 L156.271,92.372 C156.922,92.372 157.129,92.254 157.484,91.721 C157.720,91.277 158.046,90.656 158.223,90.212 C158.283,90.064 158.312,89.857 158.549,89.857 C158.726,89.857 160.235,90.271 160.561,90.360 C160.797,90.419 161.389,90.567 161.389,90.863 C161.389,91.070 161.182,91.100 161.004,91.159 C160.797,91.218 160.649,91.277 160.561,91.484 C160.501,91.573 160.442,91.692 160.383,91.780 C160.354,91.869 160.324,91.928 160.324,92.017 C160.324,92.283 160.531,92.342 160.738,92.372 L161.330,92.372 C162.217,92.372 163.135,92.313 164.052,92.313 C164.673,92.313 164.643,92.697 164.643,93.408 C164.643,94.029 164.673,94.443 164.081,94.443 C163.164,94.443 162.247,94.413 161.330,94.413 L156.922,94.413 C156.596,94.413 156.419,94.473 156.241,94.768 L156.182,94.857 C156.152,94.946 156.123,95.035 156.123,95.123 C156.123,95.449 156.360,95.508 156.596,95.538 L158.046,95.538 C158.756,95.538 159.466,95.508 160.176,95.508 C161.004,95.508 161.862,95.597 161.862,96.632 C161.862,97.194 161.803,97.727 161.803,98.260 L161.803,101.425 C161.803,101.958 161.862,102.520 161.862,103.052 C161.862,104.058 161.034,104.177 160.235,104.177 C159.496,104.177 158.756,104.147 158.046,104.147 L151.981,104.147 C151.271,104.147 150.561,104.177 149.821,104.177 C149.022,104.177 148.164,104.088 148.164,103.052 C148.164,102.490 148.194,101.958 148.194,101.425 L148.194,98.260 C148.194,97.727 148.164,97.194 148.164,96.662 C148.164,95.626 148.963,95.508 149.792,95.508 C150.531,95.508 151.241,95.538 151.981,95.538 L152.277,95.538 C152.602,95.538 152.780,95.478 152.957,95.212 L153.046,95.094 C153.076,95.005 153.105,94.916 153.105,94.798 C153.105,94.502 152.868,94.413 152.632,94.413 ZM151.034,102.194 C151.034,102.461 151.212,102.638 151.508,102.668 L158.697,102.668 C158.963,102.638 159.141,102.461 159.170,102.194 L159.170,102.046 C159.141,101.751 158.963,101.603 158.697,101.573 L151.508,101.573 C151.212,101.603 151.034,101.751 151.034,102.046 L151.034,102.194 ZM151.034,99.828 C151.034,100.123 151.212,100.271 151.508,100.301 L158.697,100.301 C158.963,100.271 159.141,100.123 159.170,99.828 L159.170,99.768 C159.141,99.502 158.963,99.325 158.697,99.295 L151.508,99.295 C151.212,99.325 151.034,99.502 151.034,99.768 L151.034,99.828 ZM151.389,97.047 C151.182,97.047 151.034,97.194 151.034,97.431 L151.034,97.668 C151.034,97.875 151.182,98.023 151.389,98.052 L158.786,98.052 C159.022,98.023 159.141,97.875 159.170,97.668 L159.170,97.431 C159.141,97.194 159.022,97.047 158.786,97.047 L151.389,97.047 ZM143.070,51.602 C143.425,51.010 144.135,47.075 144.165,46.217 C144.194,45.774 144.194,45.478 144.490,45.478 C144.756,45.478 146.709,46.069 147.094,46.188 C147.360,46.276 148.188,46.484 148.188,46.809 C148.188,46.957 148.011,47.046 147.922,47.105 C147.478,47.371 147.449,47.489 147.242,48.140 C147.153,48.466 146.532,50.626 146.532,50.773 C146.532,51.040 146.739,51.217 146.975,51.217 C147.508,51.217 149.816,50.359 150.407,50.123 C150.614,50.034 150.821,49.975 151.029,49.975 C151.620,49.975 151.620,51.779 151.620,52.223 C151.620,52.726 151.561,53.140 151.058,53.288 C149.608,53.762 147.715,54.146 146.206,54.442 C145.348,54.620 145.259,54.767 144.993,55.596 C143.662,59.590 141.472,64.974 139.490,68.643 C139.106,69.353 138.869,69.767 138.425,69.767 C137.952,69.767 135.910,68.820 135.910,68.170 C135.910,67.874 136.236,67.430 136.413,67.193 C138.277,64.531 140.496,59.383 141.650,56.247 C141.709,56.069 141.887,55.625 141.887,55.477 C141.887,55.182 141.650,55.034 141.354,55.034 C140.940,55.034 139.638,55.182 138.721,55.182 C138.129,55.182 137.656,55.211 137.478,54.649 C137.360,54.265 137.242,52.933 137.242,52.489 C137.242,52.164 137.331,51.957 137.686,51.957 C137.952,51.957 139.194,52.075 140.467,52.075 C142.360,52.075 142.804,52.046 143.070,51.602 ZM118.167,24.707 C117.397,24.707 116.184,22.873 116.184,22.222 C116.184,21.926 116.628,21.867 116.924,21.808 C120.800,20.891 123.847,18.346 123.847,14.116 C123.847,10.950 122.190,8.110 119.113,7.045 C118.847,6.956 118.255,6.778 117.989,6.778 C117.309,6.778 117.309,7.429 117.279,7.932 C116.954,12.252 115.918,17.518 113.078,20.920 C112.102,22.104 110.800,23.198 109.173,23.198 C107.368,23.198 105.948,21.897 105.149,20.388 C104.498,19.175 104.232,17.577 104.232,16.187 C104.232,9.264 109.528,3.761 116.510,3.761 C119.409,3.761 122.072,4.619 124.172,6.690 C126.155,8.672 127.161,11.157 127.161,13.968 C127.161,18.080 125.001,21.601 121.391,23.524 C120.711,23.879 118.877,24.707 118.167,24.707 ZM113.670,7.222 C113.433,7.222 112.900,7.429 112.664,7.548 C109.291,9.145 107.338,12.311 107.338,16.068 C107.338,17.163 107.723,19.914 109.232,19.914 C110.711,19.914 112.368,16.542 113.196,13.524 C113.581,12.104 114.143,9.175 114.143,7.755 C114.143,7.459 113.995,7.222 113.670,7.222 ZM94.006,111.336 C93.562,111.336 92.083,110.301 91.639,109.975 C88.769,107.875 86.373,105.301 84.095,102.609 C83.148,101.514 82.497,100.745 81.876,100.745 C81.284,100.745 80.367,101.573 79.598,102.283 C78.178,103.614 76.639,104.827 75.308,106.248 C75.130,106.425 74.864,106.750 74.598,106.750 C74.036,106.750 72.142,104.265 72.142,103.822 C72.142,103.496 72.793,103.230 73.059,103.082 C74.627,102.283 76.462,100.715 77.823,99.532 C78.947,98.555 80.308,97.135 81.905,97.135 C83.829,97.135 85.101,98.762 86.225,100.064 C88.917,103.200 91.876,106.129 95.603,107.963 C95.870,108.082 96.195,108.259 96.195,108.555 C96.195,109.117 94.805,111.336 94.006,111.336 ZM93.612,71.158 C93.050,71.158 92.488,71.187 91.926,71.187 L88.790,71.187 C83.258,71.187 81.216,70.980 78.909,70.122 C77.311,69.531 76.246,68.495 75.210,67.193 C75.092,67.045 74.974,66.957 74.796,66.957 C74.619,66.957 74.471,67.105 74.382,67.223 C73.761,68.436 72.903,69.797 72.074,70.891 C71.838,71.187 71.483,71.631 71.068,71.631 C70.536,71.631 68.820,70.832 68.820,70.211 C68.820,69.945 69.145,69.619 69.323,69.412 C71.542,66.720 73.406,63.111 74.086,59.679 C74.175,59.205 74.264,58.614 74.707,58.614 C75.181,58.614 76.926,59.116 77.459,59.264 C77.696,59.324 78.080,59.442 78.080,59.738 C78.080,59.945 77.843,60.063 77.666,60.122 C77.222,60.300 77.133,60.537 76.867,61.365 C76.719,61.779 76.542,62.312 76.275,63.051 C76.187,63.288 76.128,63.525 76.128,63.761 C76.128,64.028 76.246,64.235 76.394,64.471 C77.252,65.892 78.346,66.868 79.885,67.460 C80.003,67.489 80.062,67.489 80.151,67.489 C80.536,67.489 80.625,67.164 80.654,66.868 L80.654,57.223 C80.654,56.661 80.417,56.395 79.826,56.395 L76.157,56.395 C75.920,56.424 75.832,56.543 75.743,56.779 C75.565,57.105 75.270,57.105 74.264,57.105 C73.080,57.105 72.636,57.164 72.636,56.424 C72.636,56.276 72.725,54.708 72.725,54.324 L72.725,49.235 C72.725,48.643 72.666,48.052 72.666,47.460 C72.666,46.306 73.554,46.188 74.500,46.188 C75.329,46.188 76.157,46.247 77.015,46.247 L87.311,46.247 C88.139,46.247 88.968,46.188 89.796,46.188 C90.713,46.188 91.630,46.306 91.630,47.460 C91.630,48.052 91.601,48.643 91.601,49.235 L91.601,54.324 C91.601,54.738 91.660,56.217 91.660,56.424 C91.660,57.164 91.246,57.105 90.003,57.105 C89.027,57.105 88.731,57.105 88.583,56.750 C88.494,56.543 88.405,56.424 88.169,56.395 L84.619,56.395 C84.027,56.395 83.790,56.661 83.790,57.223 L83.790,59.472 C83.790,60.034 84.027,60.241 84.619,60.300 L88.465,60.300 C89.530,60.300 90.565,60.211 91.630,60.211 C92.340,60.211 92.311,60.566 92.311,61.661 C92.311,62.726 92.311,63.051 91.630,63.051 C90.595,63.051 89.530,62.992 88.465,62.992 L84.619,62.992 C84.027,62.992 83.790,63.229 83.790,63.821 L83.790,67.341 C83.790,67.903 83.997,68.170 84.559,68.199 C85.979,68.258 87.400,68.258 88.820,68.258 C90.121,68.258 92.666,68.199 93.879,68.081 C94.056,68.051 94.382,68.022 94.530,68.022 C95.062,68.022 95.180,68.436 95.180,68.880 C95.180,69.353 95.092,70.033 94.885,70.448 C94.559,71.128 94.115,71.158 93.612,71.158 ZM87.755,53.643 C88.287,53.584 88.524,53.318 88.583,52.815 L88.583,49.886 C88.524,49.353 88.287,49.117 87.755,49.057 L76.542,49.057 C76.039,49.117 75.773,49.353 75.713,49.886 L75.713,52.815 C75.773,53.318 76.039,53.584 76.542,53.643 L87.755,53.643 ZM86.956,25.210 C85.003,25.210 82.281,24.973 80.625,23.879 C80.151,23.553 79.175,22.814 79.175,22.192 C79.175,21.749 80.536,20.003 81.009,20.003 C81.216,20.003 81.423,20.269 81.542,20.417 C82.843,21.867 85.092,22.133 86.897,22.133 C88.435,22.133 89.648,21.985 91.098,21.541 C91.186,21.512 91.305,21.482 91.394,21.482 C91.897,21.482 91.897,22.163 91.897,23.346 C91.897,23.938 91.926,24.618 91.571,24.825 C91.039,25.062 87.695,25.210 86.956,25.210 ZM90.417,14.737 C90.210,14.737 90.003,14.678 89.796,14.589 C88.317,14.027 86.690,13.849 85.092,13.849 C84.707,13.849 84.352,13.879 83.968,13.879 C83.376,13.879 83.228,13.731 83.228,13.228 C83.228,10.684 83.761,10.861 85.151,10.861 C86.719,10.861 89.618,11.127 91.098,11.690 C91.364,11.778 91.512,11.956 91.512,12.281 C91.512,12.725 91.157,13.938 90.950,14.352 C90.831,14.619 90.713,14.737 90.417,14.737 ZM81.068,9.589 C80.210,9.767 80.122,9.914 79.855,10.743 C78.524,14.737 76.335,20.121 74.352,23.790 C73.968,24.500 73.731,24.914 73.287,24.914 C72.814,24.914 70.773,23.967 70.773,23.317 C70.773,23.021 71.098,22.577 71.276,22.340 C73.139,19.678 75.358,14.530 76.512,11.394 C76.571,11.216 76.749,10.772 76.749,10.625 C76.749,10.329 76.512,10.181 76.216,10.181 C75.802,10.181 74.500,10.329 73.583,10.329 C72.992,10.329 72.518,10.358 72.341,9.796 C72.222,9.412 72.104,8.080 72.104,7.636 C72.104,7.311 72.193,7.104 72.548,7.104 C72.814,7.104 74.057,7.222 75.329,7.222 C77.222,7.222 77.666,7.193 77.932,6.749 C78.287,6.157 78.997,2.222 79.027,1.364 C79.057,0.921 79.057,0.625 79.352,0.625 C79.619,0.625 81.571,1.216 81.956,1.335 C82.222,1.423 83.051,1.631 83.051,1.956 C83.051,2.104 82.873,2.193 82.784,2.252 C82.340,2.518 82.311,2.636 82.104,3.287 C82.015,3.613 81.394,5.773 81.394,5.920 C81.394,6.187 81.601,6.364 81.838,6.364 C82.370,6.364 84.678,5.506 85.269,5.270 C85.477,5.181 85.684,5.122 85.891,5.122 C86.482,5.122 86.482,6.926 86.482,7.370 C86.482,7.873 86.423,8.287 85.920,8.435 C84.471,8.909 82.577,9.293 81.068,9.589 ZM60.804,109.798 C60.064,109.798 56.455,108.023 55.656,107.579 C55.508,107.520 55.449,107.490 55.301,107.490 C55.005,107.490 54.887,107.727 54.857,107.963 L54.857,113.052 C54.857,113.969 54.916,114.857 54.916,115.774 C54.916,116.662 54.532,116.632 53.378,116.632 C52.224,116.632 51.810,116.662 51.810,115.774 C51.810,114.886 51.869,113.969 51.869,113.052 L51.869,108.319 C51.869,107.756 51.840,107.224 51.780,106.662 C51.780,106.573 51.751,106.484 51.751,106.395 C51.751,106.070 52.017,106.011 52.283,106.011 L52.668,106.011 C52.757,106.011 52.846,105.981 52.846,105.863 C52.846,105.804 52.816,105.774 52.786,105.745 C51.662,104.946 50.449,103.940 49.473,102.993 C49.295,102.845 49.147,102.727 48.940,102.727 C48.674,102.727 48.556,102.875 48.378,103.023 C47.520,103.940 46.573,104.768 45.597,105.537 C45.538,105.626 45.479,105.685 45.479,105.804 C45.479,105.981 45.627,106.040 45.775,106.070 C46.751,106.159 47.165,106.188 47.165,106.484 C47.165,106.691 46.958,106.780 46.781,106.869 C46.633,106.958 46.485,107.106 46.485,107.283 C46.425,110.656 45.331,113.585 42.313,115.330 C41.662,115.715 40.065,116.484 39.325,116.484 C38.585,116.484 37.816,114.946 37.816,114.413 C37.816,113.940 38.290,113.881 38.615,113.792 C41.810,112.904 43.349,111.100 43.556,107.786 C43.526,107.520 43.467,107.283 43.142,107.283 C43.053,107.283 42.964,107.342 42.875,107.372 C41.869,107.934 38.112,109.916 37.165,109.916 C36.514,109.916 35.775,108.378 35.775,107.816 C35.775,107.431 36.219,107.342 36.869,107.106 C39.798,106.070 42.787,104.739 45.124,102.638 C45.212,102.549 45.272,102.490 45.272,102.372 C45.272,102.165 45.065,102.106 44.887,102.076 L42.076,102.076 C41.781,102.106 41.603,102.372 41.426,102.579 C41.218,102.756 40.745,102.786 40.301,102.786 L39.976,102.786 C38.763,102.786 38.437,102.786 38.437,102.076 C38.437,101.366 38.526,100.626 38.526,99.916 L38.526,94.058 C38.526,93.437 38.467,92.816 38.467,92.195 C38.467,91.070 39.059,90.863 40.390,90.863 C40.982,90.863 41.781,90.922 42.727,90.922 L55.390,90.922 C56.337,90.922 57.106,90.863 57.727,90.863 C58.999,90.863 59.621,91.070 59.621,92.165 C59.621,92.816 59.591,93.437 59.591,94.058 L59.591,99.916 C59.591,100.626 59.650,101.366 59.650,102.076 C59.650,102.756 59.354,102.786 58.141,102.786 C57.165,102.786 56.869,102.786 56.662,102.579 C56.484,102.372 56.307,102.106 56.011,102.076 L53.082,102.076 C52.816,102.106 52.727,102.254 52.727,102.342 C52.727,102.461 52.786,102.520 52.875,102.579 C55.508,104.709 58.141,105.922 61.336,106.987 C61.839,107.165 62.254,107.253 62.254,107.638 C62.254,108.230 61.455,109.798 60.804,109.798 ZM47.550,94.177 C47.550,93.674 47.254,93.408 46.751,93.348 L42.313,93.348 C41.810,93.408 41.544,93.674 41.485,94.177 L41.485,94.561 C41.544,95.064 41.810,95.331 42.313,95.390 L46.751,95.390 C47.254,95.331 47.550,95.064 47.550,94.561 L47.550,94.177 ZM47.550,98.437 C47.550,97.934 47.254,97.668 46.751,97.609 L42.313,97.609 C41.810,97.668 41.544,97.934 41.485,98.437 L41.485,98.822 C41.544,99.325 41.810,99.591 42.313,99.650 L46.751,99.650 C47.254,99.591 47.550,99.325 47.550,98.822 L47.550,98.437 ZM56.603,94.177 C56.603,93.674 56.307,93.408 55.804,93.348 L51.337,93.348 C50.834,93.408 50.567,93.674 50.508,94.177 L50.508,94.561 C50.567,95.064 50.834,95.331 51.337,95.390 L55.804,95.390 C56.307,95.331 56.603,95.064 56.603,94.561 L56.603,94.177 ZM55.804,99.650 C56.307,99.591 56.603,99.325 56.603,98.822 L56.603,98.437 C56.603,97.934 56.307,97.668 55.804,97.609 L51.337,97.609 C50.834,97.668 50.567,97.934 50.508,98.437 L50.508,98.822 C50.567,99.325 50.834,99.591 51.337,99.650 L55.804,99.650 ZM56.970,12.607 C56.674,12.607 56.467,12.281 56.319,12.074 C55.402,10.684 53.952,9.264 52.621,8.258 C52.502,8.169 52.236,7.991 52.236,7.784 C52.236,7.370 53.597,5.743 54.218,5.743 C54.958,5.743 59.189,9.796 59.189,10.565 C59.189,11.275 57.502,12.607 56.970,12.607 ZM52.325,12.784 C52.325,13.642 52.473,17.902 52.621,18.524 C52.709,18.968 53.094,19.086 53.538,19.263 C53.627,19.293 53.745,19.352 53.834,19.382 C54.514,19.648 58.005,21.275 58.005,21.985 C58.005,22.459 56.911,24.145 56.171,24.145 C55.875,24.145 55.609,23.879 55.402,23.731 C54.958,23.405 53.508,22.370 53.035,22.370 C52.709,22.370 52.591,22.784 52.562,23.050 C52.207,25.210 50.461,25.950 48.449,25.950 C46.053,25.950 43.242,24.678 43.242,21.926 C43.242,19.204 45.816,18.258 48.153,18.258 L48.923,18.258 C49.278,18.258 49.544,18.110 49.544,17.755 C49.544,16.808 49.100,12.518 49.011,11.364 C49.011,11.216 48.982,11.098 48.982,10.950 C48.982,10.477 49.248,10.299 49.692,10.299 C50.254,10.299 51.260,10.477 51.792,10.595 C52.118,10.684 52.384,10.861 52.384,11.216 C52.384,11.275 52.325,12.163 52.325,12.784 ZM48.242,20.743 C47.532,20.743 46.260,20.920 46.260,21.867 C46.260,22.784 47.443,23.257 48.213,23.257 C49.278,23.257 49.751,22.695 49.751,21.660 C49.751,21.068 49.721,20.743 48.242,20.743 ZM43.751,54.708 C43.573,54.708 43.307,54.738 43.130,54.738 C42.449,54.767 40.142,55.034 39.550,55.034 C39.106,55.034 38.899,54.856 38.781,54.442 C38.633,54.028 38.455,52.904 38.455,52.489 C38.455,51.720 38.929,51.750 39.077,51.750 C39.491,51.750 41.236,51.868 42.420,51.868 C44.520,51.868 44.846,51.779 45.112,51.158 C45.319,50.626 45.674,48.081 45.733,47.401 C45.792,46.987 45.763,46.336 46.236,46.336 C46.532,46.336 49.638,47.194 49.638,47.844 C49.638,48.052 49.520,48.170 49.372,48.288 C48.958,48.643 48.899,48.939 48.751,49.501 C48.692,49.679 48.662,49.856 48.573,50.093 C48.514,50.300 48.396,50.626 48.396,50.833 C48.396,51.069 48.573,51.276 48.899,51.276 C49.964,51.276 53.485,50.359 54.609,49.975 C54.816,49.886 55.171,49.768 55.408,49.768 C55.792,49.768 55.851,50.182 55.970,50.596 C56.088,51.069 56.236,51.927 56.236,52.430 C56.236,52.904 55.911,52.992 55.171,53.140 C53.573,53.436 50.082,53.969 48.425,54.146 C47.449,54.265 47.420,54.472 47.065,55.862 C46.976,56.276 46.828,56.809 46.650,57.460 C46.591,57.608 46.562,57.844 46.562,57.992 C46.562,58.170 46.650,58.259 46.857,58.259 C46.976,58.259 47.094,58.199 47.183,58.140 C48.958,57.134 50.289,56.543 52.360,56.543 C55.999,56.543 58.366,59.028 58.366,62.667 C58.366,66.394 55.822,68.673 52.390,69.590 C50.585,70.063 48.100,70.418 46.207,70.418 C45.230,70.418 45.082,70.270 44.905,69.649 C44.757,69.205 44.520,68.140 44.520,67.696 C44.520,67.312 44.786,67.075 45.141,67.075 C45.526,67.075 46.414,67.282 47.538,67.282 C50.615,67.282 55.319,66.394 55.319,62.489 C55.319,60.744 54.165,59.412 52.390,59.412 C49.816,59.412 46.739,61.040 45.230,63.111 C45.023,63.377 44.757,63.761 44.402,63.761 C43.721,63.761 42.035,62.933 42.035,62.105 C42.035,61.720 42.301,61.158 42.449,60.803 C43.218,59.057 43.603,57.696 44.076,55.892 C44.136,55.685 44.224,55.359 44.224,55.152 C44.224,54.856 44.017,54.708 43.751,54.708 ZM46.497,9.116 C45.431,9.293 45.461,9.500 45.106,10.477 C43.804,14.116 42.118,17.636 40.284,21.009 C40.106,21.305 40.017,21.423 39.692,21.423 C39.041,21.423 37.059,20.565 37.059,19.944 C37.059,19.678 37.443,19.115 37.591,18.879 C38.804,16.897 40.224,14.175 41.112,12.045 C41.260,11.719 41.792,10.477 41.792,10.240 C41.792,10.062 41.645,9.855 41.378,9.855 C41.142,9.855 38.864,10.151 38.183,10.151 C37.680,10.151 37.562,9.885 37.443,9.204 C37.384,8.849 37.236,7.784 37.236,7.488 C37.236,7.104 37.443,7.015 37.769,7.015 L39.130,7.015 C40.136,7.015 41.171,6.986 42.177,6.867 C42.562,6.808 42.828,6.778 43.065,6.394 C43.508,5.654 44.011,2.370 44.011,1.423 C44.011,1.216 44.011,0.921 44.278,0.921 C44.603,0.921 47.059,1.631 47.532,1.779 C47.680,1.838 48.005,1.926 48.005,2.134 C48.005,2.341 47.798,2.459 47.532,2.666 C47.295,2.873 47.088,3.909 47.000,4.234 C46.911,4.471 46.674,5.418 46.674,5.565 C46.674,5.773 46.792,5.950 47.000,5.950 C47.207,5.950 48.420,5.595 48.686,5.506 C48.775,5.477 48.893,5.447 48.982,5.447 C49.337,5.447 49.366,5.980 49.426,6.335 C49.485,6.749 49.573,7.488 49.573,7.903 C49.573,8.554 49.218,8.613 46.497,9.116 ZM26.061,55.004 C24.966,55.004 23.901,54.945 22.836,54.945 L19.049,54.945 C18.546,54.945 18.339,55.152 18.339,55.655 L18.339,56.010 C18.339,56.483 18.546,56.690 19.049,56.690 L21.712,56.690 C22.481,56.690 23.250,56.631 24.019,56.631 C24.877,56.631 25.439,56.809 25.439,57.785 C25.439,58.495 25.410,59.205 25.410,59.945 L25.410,67.164 C25.410,67.696 25.439,68.229 25.439,68.732 C25.439,69.590 25.351,70.536 24.611,71.069 C23.694,71.720 22.215,71.749 21.120,71.749 C20.469,71.749 19.729,71.838 19.729,69.974 C19.729,69.531 19.848,69.175 20.321,69.175 C20.765,69.175 21.357,69.264 21.948,69.264 C22.865,69.264 22.806,68.820 22.806,67.933 L22.806,59.945 C22.806,59.383 22.570,59.116 22.007,59.116 L18.724,59.116 C18.132,59.116 17.895,59.383 17.895,59.945 L17.895,64.087 C17.895,64.590 18.102,64.797 18.605,64.797 L18.694,64.797 C19.167,64.797 19.374,64.590 19.374,64.087 L19.374,62.223 C19.374,61.809 19.374,61.424 19.315,61.040 C19.286,60.951 19.286,60.892 19.286,60.832 C19.286,60.566 19.463,60.537 19.670,60.537 C19.996,60.537 21.061,60.625 21.416,60.655 C21.623,60.685 21.948,60.714 21.948,60.980 C21.948,61.158 21.800,61.217 21.682,61.306 C21.357,61.542 21.386,61.986 21.386,62.963 L21.386,64.945 C21.386,65.625 21.416,66.335 21.416,67.045 C21.416,67.637 21.238,67.667 20.380,67.667 C19.789,67.667 19.581,67.637 19.434,67.489 C19.286,67.312 19.167,67.105 18.901,67.075 L14.818,67.075 C14.522,67.105 14.404,67.252 14.345,67.519 C14.286,67.844 14.138,67.933 13.309,67.933 C12.451,67.933 12.274,67.874 12.274,67.312 C12.274,66.572 12.304,65.862 12.304,65.122 L12.304,62.223 C12.304,61.809 12.304,61.395 12.244,61.010 C12.244,60.951 12.215,60.862 12.215,60.803 C12.215,60.537 12.451,60.537 12.659,60.537 C12.895,60.537 14.227,60.625 14.493,60.655 C14.641,60.685 14.877,60.744 14.877,60.951 C14.877,61.128 14.759,61.187 14.611,61.306 C14.286,61.513 14.315,62.016 14.315,62.963 L14.315,64.235 C14.315,64.619 14.463,64.797 14.877,64.797 L15.203,64.797 C15.617,64.797 15.765,64.619 15.765,64.235 L15.765,59.945 C15.765,59.383 15.528,59.116 14.937,59.116 L11.741,59.116 C11.150,59.116 10.913,59.383 10.913,59.945 L10.913,67.962 C10.913,68.939 10.972,69.915 10.972,70.921 C10.972,71.720 10.676,71.720 9.641,71.720 C8.576,71.720 8.280,71.690 8.280,70.921 C8.280,69.915 8.339,68.939 8.339,67.962 L8.339,59.974 C8.339,59.235 8.309,58.525 8.309,57.785 C8.309,56.809 8.872,56.661 9.730,56.661 C10.499,56.661 11.268,56.690 12.008,56.690 L14.670,56.690 C15.144,56.690 15.351,56.483 15.351,56.010 L15.351,55.655 C15.351,55.152 15.144,54.945 14.670,54.945 L10.913,54.945 C9.818,54.945 8.753,55.004 7.659,55.004 C6.978,55.004 6.978,54.649 6.978,53.732 C6.978,52.756 6.978,52.460 7.688,52.460 C8.753,52.460 9.848,52.519 10.913,52.519 L11.150,52.519 C11.741,52.519 11.978,52.282 11.978,51.691 L11.978,51.217 C11.978,50.655 11.771,50.389 11.209,50.389 C10.321,50.359 9.463,50.448 8.576,50.448 C7.925,50.448 7.925,50.093 7.925,49.205 C7.925,48.318 7.925,47.963 8.576,47.963 C9.463,47.963 10.321,48.052 11.209,48.022 C11.712,48.022 11.948,47.815 11.978,47.282 C11.948,46.779 11.948,46.336 11.860,45.833 L11.860,45.566 C11.860,45.241 12.096,45.211 12.363,45.211 C12.806,45.211 14.404,45.330 14.907,45.359 C15.085,45.389 15.528,45.389 15.528,45.655 C15.528,45.833 15.380,45.921 15.173,46.069 C14.848,46.306 14.848,46.661 14.848,47.223 C14.877,47.785 15.085,48.022 15.676,48.022 L18.102,48.022 C18.635,48.022 18.901,47.844 18.931,47.282 C18.931,46.809 18.901,46.365 18.812,45.892 L18.812,45.655 C18.812,45.300 19.019,45.271 19.315,45.271 C19.729,45.271 21.357,45.389 21.830,45.418 C22.007,45.448 22.481,45.478 22.481,45.744 C22.481,45.921 22.363,45.981 22.126,46.158 C21.800,46.395 21.800,46.691 21.800,47.194 C21.771,47.756 22.007,48.022 22.570,48.022 C23.457,48.052 24.315,47.963 25.173,47.963 C25.854,47.963 25.854,48.288 25.854,49.205 C25.854,50.093 25.854,50.448 25.203,50.448 C24.315,50.448 23.457,50.359 22.570,50.389 C22.007,50.389 21.800,50.655 21.800,51.217 L21.800,51.691 C21.800,52.282 22.037,52.519 22.629,52.519 L22.836,52.519 C23.931,52.519 24.996,52.460 26.061,52.460 C26.771,52.460 26.741,52.815 26.741,53.732 C26.741,54.708 26.771,55.004 26.061,55.004 ZM18.931,51.217 C18.871,50.714 18.605,50.448 18.102,50.389 L15.676,50.389 C15.144,50.448 14.848,50.714 14.848,51.217 L14.848,51.691 C14.848,52.223 15.144,52.519 15.676,52.519 L18.102,52.519 C18.605,52.460 18.871,52.223 18.931,51.691 L18.931,51.217 ZM15.144,26.453 C14.493,26.453 13.783,24.648 13.783,24.086 C13.783,23.760 14.108,23.731 14.434,23.642 C17.540,22.814 21.357,21.039 21.357,17.311 C21.357,14.027 18.753,13.080 18.398,13.080 C17.954,13.080 17.777,13.465 17.599,13.820 C16.475,15.950 15.262,17.666 13.635,19.471 C13.457,19.648 13.339,19.796 13.339,20.062 C13.339,20.151 13.487,21.009 13.517,21.157 L13.517,21.305 C13.517,21.867 11.919,22.873 11.268,22.873 C11.002,22.873 10.854,22.695 10.765,22.459 C10.706,22.311 10.647,22.163 10.440,22.163 C10.321,22.163 10.233,22.222 10.114,22.281 C8.842,23.110 7.274,23.879 5.736,23.879 C3.665,23.879 2.392,22.311 2.392,20.328 C2.392,16.394 6.150,12.784 9.493,11.187 C9.670,11.098 10.351,10.950 10.351,9.530 C10.351,9.204 10.144,9.027 9.848,9.027 C9.730,9.027 9.315,9.086 9.197,9.086 C8.102,9.175 7.008,9.323 5.913,9.323 C4.611,9.323 4.434,9.323 4.434,7.932 C4.434,6.453 4.611,6.364 5.144,6.364 C5.647,6.364 6.150,6.394 6.682,6.394 C7.688,6.394 8.694,6.364 9.700,6.275 C9.996,6.246 10.262,6.246 10.499,6.009 C10.735,5.773 10.765,5.506 10.795,5.210 C10.943,4.175 11.061,3.139 11.209,2.074 C11.238,1.808 11.357,1.601 11.682,1.601 C11.889,1.601 13.309,2.074 13.635,2.163 C14.434,2.400 14.907,2.489 14.907,2.784 C14.907,2.962 14.729,3.080 14.611,3.169 C14.227,3.406 14.138,3.554 13.960,4.264 C13.931,4.441 13.783,5.062 13.783,5.181 C13.783,5.418 13.960,5.625 14.197,5.625 C14.286,5.625 14.552,5.565 14.641,5.536 C15.765,5.299 17.067,4.974 18.132,4.560 C18.280,4.500 18.457,4.412 18.635,4.412 C19.345,4.412 19.581,6.660 19.581,6.778 C19.581,7.341 18.871,7.459 18.132,7.607 C16.978,7.873 15.144,8.228 13.960,8.406 C13.280,8.524 13.161,9.264 13.161,9.589 C13.161,9.855 13.428,9.974 13.635,9.974 C13.694,9.974 13.783,9.944 13.872,9.944 C14.463,9.885 15.203,9.796 15.795,9.796 C20.380,9.796 24.493,12.133 24.493,17.192 C24.493,23.908 16.120,26.453 15.144,26.453 ZM10.055,15.003 C10.055,14.737 9.996,14.500 9.700,14.500 C9.079,14.500 5.381,17.577 5.381,19.973 C5.381,20.536 5.647,20.861 6.209,20.861 C7.244,20.861 8.960,19.826 9.759,19.204 C10.055,18.968 10.114,18.642 10.114,18.287 C10.114,18.021 10.025,16.778 10.025,15.861 C10.025,15.565 10.055,15.269 10.055,15.003 ZM14.789,12.459 C14.374,12.459 13.487,12.607 13.161,12.814 C12.836,13.021 12.866,13.613 12.866,14.264 L12.866,14.619 C12.866,15.092 12.895,15.802 13.161,15.802 C13.664,15.802 14.759,13.672 14.996,13.198 C15.055,13.080 15.173,12.873 15.173,12.725 C15.173,12.518 14.966,12.459 14.789,12.459 ZM2.688,45.626 C3.102,45.626 4.759,47.016 5.173,47.342 C5.528,47.637 7.067,48.791 7.067,49.205 C7.067,49.708 5.795,51.040 5.292,51.040 C5.055,51.040 4.848,50.803 4.700,50.655 C3.753,49.768 2.540,48.850 1.475,48.111 C1.268,47.963 0.972,47.785 0.972,47.489 C0.972,47.016 2.185,45.626 2.688,45.626 ZM2.097,52.164 C2.452,52.164 4.020,53.466 4.345,53.762 C4.730,54.057 6.268,55.270 6.268,55.655 C6.268,56.188 4.966,57.489 4.463,57.489 C4.256,57.489 3.990,57.223 3.842,57.046 C2.984,56.188 1.830,55.359 0.824,54.649 C0.529,54.442 0.351,54.324 0.351,54.057 C0.351,53.466 1.682,52.164 2.097,52.164 ZM4.463,59.915 C4.552,59.679 4.641,59.501 4.878,59.501 C5.351,59.501 7.067,60.329 7.067,60.980 C7.067,61.217 6.712,62.164 6.594,62.460 C5.706,64.797 4.611,67.252 3.487,69.471 C3.369,69.708 3.191,70.063 3.191,70.300 C3.191,70.448 3.280,70.714 3.280,70.891 C3.280,71.069 3.162,71.246 2.925,71.246 C2.718,71.246 1.830,70.655 1.327,70.329 C1.061,70.152 0.292,69.738 0.292,69.383 C0.292,69.235 0.381,69.057 0.469,68.939 C2.037,66.483 3.576,62.667 4.463,59.915 ZM1.239,97.668 C2.245,97.668 3.280,97.757 4.286,97.727 C4.848,97.727 5.055,97.461 5.055,96.928 L5.055,93.496 C5.055,92.757 5.055,91.987 4.966,91.337 C4.937,91.248 4.937,91.129 4.937,91.041 C4.937,90.686 5.203,90.656 5.469,90.656 C6.061,90.656 7.392,90.745 8.043,90.774 C8.309,90.804 8.812,90.804 8.812,91.159 C8.812,91.366 8.665,91.425 8.457,91.603 C8.132,91.840 8.102,92.520 8.102,93.526 L8.102,96.928 C8.102,97.490 8.339,97.727 8.931,97.727 L11.298,97.727 C11.889,97.727 12.126,97.490 12.126,96.928 L12.126,92.697 C12.126,92.017 12.126,91.366 12.037,90.804 C12.008,90.715 12.008,90.597 12.008,90.508 C12.008,90.183 12.274,90.124 12.511,90.124 C13.014,90.124 14.434,90.212 14.996,90.242 C15.232,90.271 15.735,90.271 15.735,90.627 C15.735,90.834 15.587,90.893 15.380,91.041 C15.085,91.277 15.055,91.780 15.055,92.727 L15.055,96.928 C15.055,97.490 15.292,97.727 15.854,97.727 L18.073,97.727 C18.664,97.727 18.901,97.490 18.901,96.928 L18.901,93.555 C18.901,92.786 18.901,91.958 18.812,91.307 C18.783,91.218 18.783,91.100 18.783,91.011 C18.783,90.656 19.049,90.627 19.315,90.627 C19.848,90.627 21.179,90.715 21.741,90.774 C22.007,90.774 22.481,90.804 22.481,91.129 C22.481,91.337 22.363,91.396 22.155,91.544 C21.830,91.810 21.800,92.402 21.800,93.555 L21.800,96.928 C21.800,97.490 22.037,97.727 22.629,97.727 C23.723,97.757 24.788,97.668 25.883,97.668 C26.652,97.668 26.623,98.052 26.623,99.206 C26.623,100.360 26.652,100.745 25.883,100.745 C24.788,100.745 23.694,100.626 22.629,100.656 C22.037,100.656 21.800,100.922 21.800,101.484 L21.800,105.005 C21.800,106.307 21.889,107.608 21.889,108.910 C21.889,109.798 21.593,109.827 20.351,109.827 C19.581,109.827 19.197,109.827 18.960,109.561 C18.783,109.324 18.664,109.147 18.339,109.117 L15.587,109.117 C15.262,109.147 15.173,109.324 14.996,109.532 C14.789,109.798 14.493,109.827 13.605,109.827 C12.333,109.827 12.067,109.798 12.067,108.910 C12.067,107.579 12.126,106.248 12.126,104.916 L12.126,101.484 C12.126,100.893 11.889,100.656 11.298,100.656 L8.931,100.656 C8.339,100.656 8.102,100.893 8.102,101.484 L8.102,111.662 C8.102,112.224 8.339,112.460 8.931,112.460 L21.712,112.460 C22.925,112.460 24.138,112.401 25.351,112.401 C26.090,112.401 26.090,112.727 26.090,113.910 C26.090,115.094 26.090,115.419 25.351,115.419 C24.138,115.419 22.925,115.360 21.712,115.360 L8.872,115.360 C8.398,115.360 8.250,115.596 8.162,116.070 C8.073,116.632 7.777,116.691 6.594,116.691 C5.321,116.691 4.966,116.662 4.966,115.715 C4.966,114.265 5.055,112.786 5.055,111.336 L5.055,101.484 C5.055,100.922 4.848,100.656 4.286,100.656 C3.280,100.626 2.245,100.745 1.239,100.745 C0.469,100.745 0.499,100.330 0.499,99.206 C0.499,98.052 0.469,97.668 1.239,97.668 ZM15.055,105.656 C15.114,106.218 15.351,106.395 15.883,106.395 L18.073,106.395 C18.635,106.395 18.901,106.159 18.901,105.567 L18.901,101.484 C18.901,100.893 18.664,100.656 18.073,100.656 L15.854,100.656 C15.292,100.656 15.055,100.893 15.055,101.484 L15.055,105.656 ZM107.714,48.259 C107.744,48.052 107.833,47.519 108.099,47.519 C108.188,47.519 109.489,48.052 109.696,48.140 C110.347,48.436 111.708,48.998 111.708,49.324 C111.708,49.501 111.501,49.649 111.353,49.708 C111.057,49.915 110.969,49.975 110.791,50.300 C110.436,50.951 110.111,52.046 109.933,52.785 C109.696,53.850 109.549,55.004 109.549,56.099 C109.549,56.335 109.519,57.608 109.844,57.608 C110.081,57.608 110.259,57.134 110.377,56.838 C110.525,56.513 111.057,55.241 111.412,55.241 C111.679,55.241 112.566,55.773 112.566,56.158 C112.566,56.247 112.122,57.282 111.856,57.992 L111.590,58.702 C111.176,59.827 110.614,61.187 110.614,62.371 C110.614,62.785 110.673,63.111 110.673,63.318 C110.673,64.146 109.105,64.501 108.543,64.501 C107.892,64.501 107.685,63.968 107.507,63.406 C106.856,61.483 106.531,58.554 106.531,56.513 C106.531,54.560 106.767,52.341 107.211,50.448 C107.389,49.708 107.596,48.998 107.714,48.259 ZM118.306,47.697 C118.306,47.046 120.732,46.750 121.057,46.750 C121.619,46.750 121.678,47.105 121.797,47.549 C122.418,49.915 122.714,53.614 122.714,56.069 C122.714,61.187 121.856,65.536 118.128,69.323 C117.655,69.797 116.442,70.980 115.761,70.980 C115.288,70.980 113.572,69.531 113.572,68.909 C113.572,68.673 113.838,68.495 114.016,68.406 C115.702,67.371 117.211,65.566 118.039,63.791 C119.134,61.454 119.400,58.850 119.400,56.335 C119.400,53.614 119.164,50.685 118.365,48.081 C118.335,47.963 118.306,47.815 118.306,47.697 ZM114.593,100.804 C114.593,100.567 114.563,100.449 114.474,100.271 C114.119,99.206 113.291,96.070 112.995,94.857 C112.818,94.177 112.670,93.526 112.433,92.905 C112.403,92.786 112.344,92.668 112.344,92.550 C112.344,92.106 113.320,92.106 114.267,91.958 C114.711,91.899 115.214,91.810 115.687,91.810 C116.516,91.810 116.457,92.254 116.516,92.934 C116.693,94.709 117.019,96.484 117.433,98.230 C117.522,98.615 117.610,99.117 118.113,99.117 C118.646,99.117 123.379,96.336 124.149,95.834 C124.385,95.715 124.652,95.538 124.918,95.538 C125.303,95.538 125.805,96.425 125.983,96.721 C126.220,97.106 126.841,98.112 126.841,98.526 C126.841,98.822 126.516,98.910 126.279,98.999 C124.149,99.709 120.983,101.307 118.971,102.401 C117.403,103.259 114.888,104.709 113.646,105.893 C112.877,106.632 112.196,107.431 112.196,108.555 C112.196,109.620 113.232,110.360 114.149,110.685 C115.391,111.129 116.782,111.218 118.084,111.218 C120.569,111.218 123.409,110.892 125.805,110.449 C125.894,110.419 125.983,110.419 126.072,110.419 C126.486,110.419 126.516,111.632 126.516,112.253 L126.516,112.608 C126.516,113.378 126.486,113.703 125.894,113.851 C124.770,114.147 119.178,114.324 117.758,114.324 C115.569,114.324 113.646,114.206 111.693,113.052 C110.036,112.105 108.971,110.449 108.971,108.496 C108.971,105.271 111.634,103.171 114.090,101.573 C114.386,101.366 114.593,101.159 114.593,100.804 ZM178.517,101.188 C180.647,101.070 182.748,100.745 184.819,100.183 C185.115,100.094 185.470,99.946 185.470,99.620 C185.470,99.561 184.937,97.904 184.346,97.904 C184.198,97.904 183.636,98.052 183.428,98.082 C182.689,98.230 180.766,98.615 180.056,98.615 C179.671,98.615 179.553,98.437 179.405,98.112 C179.227,97.727 178.902,96.632 178.902,96.218 C178.902,95.597 179.671,95.626 180.085,95.597 C181.062,95.538 181.446,95.449 182.363,95.301 C182.748,95.242 183.133,95.094 183.133,94.621 C183.133,94.325 182.482,93.112 182.304,92.816 C182.186,92.609 181.949,92.254 181.949,92.047 C181.949,91.425 184.020,91.011 184.523,91.011 C185.233,91.011 185.292,91.484 185.707,92.609 C185.943,93.289 186.121,93.910 186.712,93.910 C187.127,93.910 188.547,93.141 188.990,92.905 C189.198,92.816 189.523,92.609 189.730,92.609 C190.263,92.609 191.032,94.413 191.032,94.916 C191.032,95.271 190.677,95.449 190.411,95.626 C189.730,96.011 188.990,96.307 188.280,96.603 C187.985,96.721 187.600,96.810 187.600,97.194 C187.600,97.342 187.689,97.520 187.748,97.638 C188.073,98.467 188.280,98.851 188.635,98.851 C189.257,98.851 191.535,97.520 192.156,97.135 C192.334,97.017 192.659,96.810 192.866,96.810 C193.369,96.810 194.375,98.644 194.375,99.088 C194.375,99.532 193.724,99.798 193.132,100.123 C192.363,100.508 191.564,100.863 190.766,101.188 C190.411,101.336 189.937,101.484 189.937,101.987 C189.937,102.638 192.393,106.455 192.925,107.135 C193.162,107.461 193.635,108.023 193.635,108.407 C193.635,109.088 191.890,110.330 191.239,110.330 C191.032,110.330 190.914,110.242 190.766,110.094 C189.346,108.703 187.275,107.993 185.322,107.993 C184.079,107.993 182.393,108.466 182.393,110.005 C182.393,112.135 185.411,112.608 187.008,112.608 C187.630,112.608 188.192,112.549 188.813,112.460 C189.050,112.431 189.405,112.401 189.671,112.401 C190.263,112.401 190.381,112.904 190.381,113.762 C190.381,115.596 190.085,115.656 188.695,115.656 C186.772,115.656 184.789,115.596 182.985,114.886 C180.914,114.088 179.434,112.431 179.434,110.123 C179.434,106.898 182.068,105.301 185.056,105.301 C186.121,105.301 186.979,105.478 187.985,105.804 C188.073,105.833 188.192,105.863 188.280,105.863 C188.428,105.863 188.547,105.745 188.547,105.597 C188.547,105.449 187.600,103.733 187.422,103.437 C187.245,103.082 187.067,102.727 186.624,102.727 C186.446,102.727 186.357,102.756 186.209,102.816 C184.671,103.289 179.849,104.295 178.340,104.295 C177.837,104.295 177.718,103.999 177.571,103.555 C177.423,103.082 177.216,102.254 177.216,101.751 C177.216,101.188 177.748,101.248 178.517,101.188 Z"/>
</svg>